<mxfile host="Electron" agent="Mozilla/5.0 (Macintosh; Intel Mac OS X 10_15_7) AppleWebKit/537.36 (KHTML, like Gecko) draw.io/26.0.15 Chrome/132.0.6834.196 Electron/34.2.0 Safari/537.36" version="26.0.15">
  <diagram name="RoadMap-6-Months" id="roadmap">
    <mxGraphModel dx="2120" dy="1613" grid="1" gridSize="10" guides="1" tooltips="1" connect="1" arrows="1" fold="1" page="1" pageScale="1" pageWidth="1654" pageHeight="1169" math="0" shadow="0">
      <root>
        <mxCell id="0" />
        <mxCell id="1" parent="0" />
        <mxCell id="title" value="RoadMap реализации MVP депозитов с интеграцией кол-центра - 6 месяцев" style="text;html=1;strokeColor=none;fillColor=none;align=center;verticalAlign=middle;whiteSpace=wrap;rounded=0;fontSize=20;fontStyle=1;" parent="1" vertex="1">
          <mxGeometry x="330" y="10" width="800" height="30" as="geometry" />
        </mxCell>
        <mxCell id="timeline" value="" style="endArrow=classic;html=1;rounded=0;strokeColor=#000000;strokeWidth=3;spacingTop=2;spacingLeft=2;" parent="1" edge="1">
          <mxGeometry width="50" height="50" relative="1" as="geometry">
            <mxPoint x="30" y="90" as="sourcePoint" />
            <mxPoint x="1430" y="90" as="targetPoint" />
          </mxGeometry>
        </mxCell>
        <mxCell id="month1" value="Месяц 1" style="text;html=1;strokeColor=none;fillColor=none;align=center;verticalAlign=middle;whiteSpace=wrap;rounded=0;fontSize=14;fontStyle=1;" parent="1" vertex="1">
          <mxGeometry x="80" y="50" width="80" height="30" as="geometry" />
        </mxCell>
        <mxCell id="month1_line" value="" style="endArrow=none;html=1;rounded=0;strokeColor=#000000;strokeWidth=2;" parent="1" edge="1">
          <mxGeometry width="50" height="50" relative="1" as="geometry">
            <mxPoint x="120" y="80" as="sourcePoint" />
            <mxPoint x="120" y="100" as="targetPoint" />
          </mxGeometry>
        </mxCell>
        <mxCell id="month2" value="Месяц 2" style="text;html=1;strokeColor=none;fillColor=none;align=center;verticalAlign=middle;whiteSpace=wrap;rounded=0;fontSize=14;fontStyle=1;" parent="1" vertex="1">
          <mxGeometry x="280" y="50" width="80" height="30" as="geometry" />
        </mxCell>
        <mxCell id="month2_line" value="" style="endArrow=none;html=1;rounded=0;strokeColor=#000000;strokeWidth=2;" parent="1" edge="1">
          <mxGeometry width="50" height="50" relative="1" as="geometry">
            <mxPoint x="320" y="80" as="sourcePoint" />
            <mxPoint x="320" y="100" as="targetPoint" />
          </mxGeometry>
        </mxCell>
        <mxCell id="month3" value="Месяц 3" style="text;html=1;strokeColor=none;fillColor=none;align=center;verticalAlign=middle;whiteSpace=wrap;rounded=0;fontSize=14;fontStyle=1;" parent="1" vertex="1">
          <mxGeometry x="480" y="50" width="80" height="30" as="geometry" />
        </mxCell>
        <mxCell id="month3_line" value="" style="endArrow=none;html=1;rounded=0;strokeColor=#000000;strokeWidth=2;" parent="1" edge="1">
          <mxGeometry width="50" height="50" relative="1" as="geometry">
            <mxPoint x="520" y="80" as="sourcePoint" />
            <mxPoint x="520" y="100" as="targetPoint" />
          </mxGeometry>
        </mxCell>
        <mxCell id="month4" value="Месяц 4" style="text;html=1;strokeColor=none;fillColor=none;align=center;verticalAlign=middle;whiteSpace=wrap;rounded=0;fontSize=14;fontStyle=1;" parent="1" vertex="1">
          <mxGeometry x="680" y="50" width="80" height="30" as="geometry" />
        </mxCell>
        <mxCell id="month4_line" value="" style="endArrow=none;html=1;rounded=0;strokeColor=#000000;strokeWidth=2;" parent="1" edge="1">
          <mxGeometry width="50" height="50" relative="1" as="geometry">
            <mxPoint x="720" y="80" as="sourcePoint" />
            <mxPoint x="720" y="100" as="targetPoint" />
          </mxGeometry>
        </mxCell>
        <mxCell id="month5" value="Месяц 5" style="text;html=1;strokeColor=none;fillColor=none;align=center;verticalAlign=middle;whiteSpace=wrap;rounded=0;fontSize=14;fontStyle=1;" parent="1" vertex="1">
          <mxGeometry x="880" y="50" width="80" height="30" as="geometry" />
        </mxCell>
        <mxCell id="month5_line" value="" style="endArrow=none;html=1;rounded=0;strokeColor=#000000;strokeWidth=2;" parent="1" edge="1">
          <mxGeometry width="50" height="50" relative="1" as="geometry">
            <mxPoint x="920" y="80" as="sourcePoint" />
            <mxPoint x="920" y="100" as="targetPoint" />
          </mxGeometry>
        </mxCell>
        <mxCell id="month6" value="Месяц 6" style="text;html=1;strokeColor=none;fillColor=none;align=center;verticalAlign=middle;whiteSpace=wrap;rounded=0;fontSize=14;fontStyle=1;" parent="1" vertex="1">
          <mxGeometry x="1080" y="50" width="80" height="30" as="geometry" />
        </mxCell>
        <mxCell id="month6_line" value="" style="endArrow=none;html=1;rounded=0;strokeColor=#000000;strokeWidth=2;" parent="1" edge="1">
          <mxGeometry width="50" height="50" relative="1" as="geometry">
            <mxPoint x="1120" y="80" as="sourcePoint" />
            <mxPoint x="1120" y="100" as="targetPoint" />
          </mxGeometry>
        </mxCell>
        <mxCell id="target_state" value="Целевое состояние (1 год)" style="text;html=1;strokeColor=none;fillColor=none;align=center;verticalAlign=middle;whiteSpace=wrap;rounded=0;fontSize=14;fontStyle=1;" parent="1" vertex="1">
          <mxGeometry x="1190" y="50" width="210" height="30" as="geometry" />
        </mxCell>
        <mxCell id="target_line" value="" style="endArrow=none;html=1;rounded=0;strokeColor=#ff6666;strokeWidth=3;dashed=1;" parent="1" edge="1">
          <mxGeometry width="50" height="50" relative="1" as="geometry">
            <mxPoint x="1290" y="75" as="sourcePoint" />
            <mxPoint x="1290" y="105" as="targetPoint" />
          </mxGeometry>
        </mxCell>
        <mxCell id="phase1_bg" value="" style="rounded=1;whiteSpace=wrap;html=1;fillColor=#d5e8d4;strokeColor=#82b366;opacity=30;spacingTop=2;spacingLeft=2;" parent="1" vertex="1">
          <mxGeometry x="40" y="130" width="320" height="430" as="geometry" />
        </mxCell>
        <mxCell id="phase1_title" value="ФАЗА 1: Основа MVP" style="text;html=1;strokeColor=none;fillColor=none;align=center;verticalAlign=middle;whiteSpace=wrap;rounded=0;fontSize=16;fontStyle=1;spacingTop=2;spacingLeft=2;" parent="1" vertex="1">
          <mxGeometry x="120" y="140" width="160" height="30" as="geometry" />
        </mxCell>
        <mxCell id="m1_rates_service" value="Rates Management Service&lt;br&gt;&lt;br&gt;• Spring Boot + PostgreSQL&lt;br&gt;• Excel парсер (Apache POI)&lt;br&gt;• Email Gateway&lt;br&gt;• REST API для ставок" style="rounded=1;whiteSpace=wrap;html=1;fillColor=#d5e8d4;strokeColor=#82b366;fontStyle=1;fontSize=11;align=left;spacingTop=2;spacingLeft=2;" parent="1" vertex="1">
          <mxGeometry x="50" y="180" width="150" height="110" as="geometry" />
        </mxCell>
        <mxCell id="m1_api_gateway" value="API Gateway&lt;br&gt;&lt;br&gt;• Nginx + Kong&lt;br&gt;• Маршрутизация&lt;br&gt;• Аутентификация&lt;br&gt;• Rate limiting" style="rounded=1;whiteSpace=wrap;html=1;fillColor=#d5e8d4;strokeColor=#82b366;fontStyle=1;fontSize=11;align=left;spacingTop=2;spacingLeft=2;" parent="1" vertex="1">
          <mxGeometry x="210" y="180" width="140" height="110" as="geometry" />
        </mxCell>
        <mxCell id="m1_deposits_service" value="Deposits Service&lt;br&gt;&lt;br&gt;• Spring Boot&lt;br&gt;• Управление заявками&lt;br&gt;• Валидация данных&lt;br&gt;• Kafka Producer" style="rounded=1;whiteSpace=wrap;html=1;fillColor=#d5e8d4;strokeColor=#82b366;fontStyle=1;fontSize=11;align=left;spacingTop=2;spacingLeft=2;" parent="1" vertex="1">
          <mxGeometry x="50" y="300" width="150" height="110" as="geometry" />
        </mxCell>
        <mxCell id="m1_notification_service" value="Notification Service&lt;br&gt;&lt;br&gt;• Spring Boot&lt;br&gt;• СМС интеграция&lt;br&gt;• Email отправка&lt;br&gt;• Kafka Consumer" style="rounded=1;whiteSpace=wrap;html=1;fillColor=#d5e8d4;strokeColor=#82b366;fontStyle=1;fontSize=11;align=left;spacingTop=2;spacingLeft=2;" parent="1" vertex="1">
          <mxGeometry x="210" y="300" width="140" height="110" as="geometry" />
        </mxCell>
        <mxCell id="m1_infrastructure" value="Инфраструктура&lt;br&gt;&lt;br&gt;• Docker контейнеры&lt;br&gt;• Kafka cluster&lt;br&gt;• Redis cache&lt;br&gt;• PostgreSQL кластер" style="rounded=1;whiteSpace=wrap;html=1;fillColor=#fff2cc;strokeColor=#d6b656;fontStyle=1;fontSize=11;align=left;spacingTop=2;spacingLeft=2;" parent="1" vertex="1">
          <mxGeometry x="50" y="420" width="300" height="110" as="geometry" />
        </mxCell>
        <mxCell id="phase2_bg" value="" style="rounded=1;whiteSpace=wrap;html=1;fillColor=#dae8fc;strokeColor=#6c8ebf;opacity=30;spacingTop=2;spacingLeft=2;" parent="1" vertex="1">
          <mxGeometry x="385" y="130" width="320" height="430" as="geometry" />
        </mxCell>
        <mxCell id="phase2_title" value="ФАЗА 2: Интеграции" style="text;html=1;strokeColor=none;fillColor=none;align=center;verticalAlign=middle;whiteSpace=wrap;rounded=0;fontSize=16;fontStyle=1;spacingTop=2;spacingLeft=2;" parent="1" vertex="1">
          <mxGeometry x="465" y="140" width="160" height="30" as="geometry" />
        </mxCell>
        <mxCell id="m2_abs_integration" value="АБС Интеграция&lt;br&gt;&lt;br&gt;• Integration Layer API&lt;br&gt;• Синхронизация ставок&lt;br&gt;• Webhook уведомления&lt;br&gt;• Обработка заявок" style="rounded=1;whiteSpace=wrap;html=1;fillColor=#dae8fc;strokeColor=#6c8ebf;fontStyle=1;align=left;fontSize=11;spacingTop=2;spacingLeft=2;" parent="1" vertex="1">
          <mxGeometry x="395" y="180" width="150" height="110" as="geometry" />
        </mxCell>
        <mxCell id="m2_internet_bank" value="Интернет-банк&lt;br&gt;&lt;br&gt;• Deposits API модуль&lt;br&gt;• Интеграция с Rates Service&lt;br&gt;• Кэширование ставок&lt;br&gt;• UX оптимизация" style="rounded=1;whiteSpace=wrap;html=1;fillColor=#dae8fc;strokeColor=#6c8ebf;fontStyle=1;align=left;fontSize=11;spacingTop=2;spacingLeft=2;" parent="1" vertex="1">
          <mxGeometry x="555" y="180" width="140" height="110" as="geometry" />
        </mxCell>
        <mxCell id="m2_website" value="Сайт банка&lt;br&gt;&lt;br&gt;• API интеграция&lt;br&gt;• React компоненты&lt;br&gt;• Responsive дизайн&lt;br&gt;• Кэширование" style="rounded=1;whiteSpace=wrap;html=1;fillColor=#dae8fc;strokeColor=#6c8ebf;fontStyle=1;align=left;fontSize=11;spacingTop=2;spacingLeft=2;" parent="1" vertex="1">
          <mxGeometry x="395" y="300" width="150" height="110" as="geometry" />
        </mxCell>
        <mxCell id="m3_testing" value="Тестирование MVP&lt;br&gt;&lt;br&gt;• Unit тесты&lt;br&gt;• Интеграционные тесты&lt;br&gt;• Performance тесты&lt;br&gt;• Security тесты" style="rounded=1;whiteSpace=wrap;html=1;fillColor=#dae8fc;strokeColor=#6c8ebf;fontStyle=1;align=left;fontSize=11;spacingTop=2;spacingLeft=2;" parent="1" vertex="1">
          <mxGeometry x="555" y="300" width="140" height="110" as="geometry" />
        </mxCell>
        <mxCell id="m3_monitoring" value="Мониторинг&lt;br&gt;&lt;br&gt;• ELK Stack настройка&lt;br&gt;• Grafana dashboards&lt;br&gt;• Prometheus metrics&lt;br&gt;• Alerting rules" style="rounded=1;whiteSpace=wrap;html=1;fillColor=#fff2cc;strokeColor=#d6b656;fontStyle=1;align=left;fontSize=11;spacingTop=2;spacingLeft=2;" parent="1" vertex="1">
          <mxGeometry x="395" y="420" width="300" height="110" as="geometry" />
        </mxCell>
        <mxCell id="milestone1" value="MILESTONE 1&lt;br&gt;MVP Запуск" style="rounded=1;whiteSpace=wrap;html=1;fillColor=#ffcccc;strokeColor=#ff6666;fontStyle=1;spacingTop=2;spacingLeft=2;align=left;" parent="1" vertex="1">
          <mxGeometry x="470" y="600" width="100" height="60" as="geometry" />
        </mxCell>
        <mxCell id="phase3_bg" value="" style="rounded=1;whiteSpace=wrap;html=1;fillColor=#e1d5e7;strokeColor=#9673a6;opacity=30;spacingTop=2;spacingLeft=2;" parent="1" vertex="1">
          <mxGeometry x="730" y="130" width="320" height="430" as="geometry" />
        </mxCell>
        <mxCell id="phase3_title" value="ФАЗА 3: Кол-центр" style="text;html=1;strokeColor=none;fillColor=none;align=center;verticalAlign=middle;whiteSpace=wrap;rounded=0;fontSize=16;fontStyle=1;spacingTop=2;spacingLeft=2;" parent="1" vertex="1">
          <mxGeometry x="805" y="140" width="150" height="30" as="geometry" />
        </mxCell>
        <mxCell id="m4_rates_enhancement" value="Rates Service++&lt;br&gt;&lt;br&gt;• SFTP Client модуль&lt;br&gt;• Конфигурируемые форматы&lt;br&gt;• Scheduler для экспорта&lt;br&gt;• Retry mechanisms" style="rounded=1;whiteSpace=wrap;html=1;fillColor=#e1d5e7;strokeColor=#9673a6;fontStyle=1;align=left;fontSize=11;spacingTop=2;spacingLeft=2;" parent="1" vertex="1">
          <mxGeometry x="740" y="180" width="140" height="110" as="geometry" />
        </mxCell>
        <mxCell id="m4_call_center_integration" value="Кол-центр интеграция&lt;br&gt;&lt;br&gt;• API клиент для ставок&lt;br&gt;• UI обновления&lt;br&gt;• Локальное кэширование&lt;br&gt;• Поиск по ставкам" style="rounded=1;whiteSpace=wrap;html=1;fillColor=#e1d5e7;strokeColor=#9673a6;fontStyle=1;align=left;fontSize=11;spacingTop=2;spacingLeft=2;" parent="1" vertex="1">
          <mxGeometry x="890" y="180" width="150" height="110" as="geometry" />
        </mxCell>
        <mxCell id="m4_excel_automation" value="Excel автоматизация&lt;br&gt;&lt;br&gt;• Email мониторинг&lt;br&gt;• Автоматический парсинг&lt;br&gt;• Валидация данных&lt;br&gt;• Error handling" style="rounded=1;whiteSpace=wrap;html=1;fillColor=#e1d5e7;strokeColor=#9673a6;fontStyle=1;align=left;fontSize=11;spacingTop=2;spacingLeft=2;" parent="1" vertex="1">
          <mxGeometry x="740" y="300" width="140" height="110" as="geometry" />
        </mxCell>
        <mxCell id="m5_partner_integration" value="Партнёр интеграция&lt;br&gt;&lt;br&gt;• SFTP сервер настройка&lt;br&gt;• Формат файлов CSV/XML&lt;br&gt;• Периодический экспорт&lt;br&gt;• Мониторинг доставки" style="rounded=1;whiteSpace=wrap;html=1;fillColor=#e1d5e7;strokeColor=#9673a6;fontStyle=1;align=left;fontSize=11;spacingTop=2;spacingLeft=2;" parent="1" vertex="1">
          <mxGeometry x="890" y="300" width="150" height="110" as="geometry" />
        </mxCell>
        <mxCell id="m5_security" value="Безопасность&lt;br&gt;&lt;br&gt;• SFTP шифрование&lt;br&gt;• API авторизация&lt;br&gt;• Audit logging&lt;br&gt;• Backup процедуры" style="rounded=1;whiteSpace=wrap;html=1;fillColor=#fff2cc;strokeColor=#d6b656;fontStyle=1;align=left;spacingTop=2;spacingLeft=2;" parent="1" vertex="1">
          <mxGeometry x="740" y="420" width="280" height="110" as="geometry" />
        </mxCell>
        <mxCell id="milestone2" value="MILESTONE 2&lt;br&gt;Кол-центр готов" style="rounded=1;whiteSpace=wrap;html=1;fillColor=#ffcccc;strokeColor=#ff6666;fontStyle=1;spacingTop=2;spacingLeft=2;align=left;" parent="1" vertex="1">
          <mxGeometry x="830" y="600" width="100" height="60" as="geometry" />
        </mxCell>
        <mxCell id="phase4_bg" value="" style="rounded=1;whiteSpace=wrap;html=1;fillColor=#f8cecc;strokeColor=#b85450;opacity=30;spacingTop=2;spacingLeft=2;" parent="1" vertex="1">
          <mxGeometry x="1080" y="130" width="220" height="430" as="geometry" />
        </mxCell>
        <mxCell id="phase4_title" value="ФАЗА 4: Оптимизация" style="text;html=1;strokeColor=none;fillColor=none;align=center;verticalAlign=middle;whiteSpace=wrap;rounded=0;fontSize=16;fontStyle=1;spacingTop=2;spacingLeft=2;" parent="1" vertex="1">
          <mxGeometry x="1110" y="140" width="160" height="30" as="geometry" />
        </mxCell>
        <mxCell id="m6_performance" value="Performance тюнинг&lt;br&gt;&lt;br&gt;• Redis кэш оптимизация&lt;br&gt;• Database индексы&lt;br&gt;• Kafka партиционирование&lt;br&gt;• Load balancing" style="rounded=1;whiteSpace=wrap;html=1;fillColor=#f8cecc;strokeColor=#b85450;fontStyle=1;align=left;fontSize=11;spacingTop=2;spacingLeft=2;" parent="1" vertex="1">
          <mxGeometry x="1090" y="180" width="200" height="110" as="geometry" />
        </mxCell>
        <mxCell id="m6_analytics" value="Аналитика&lt;br&gt;&lt;br&gt;• Business metrics&lt;br&gt;• Usage analytics&lt;br&gt;• Performance KPIs&lt;br&gt;• ROI measurements" style="rounded=1;whiteSpace=wrap;html=1;fillColor=#f8cecc;strokeColor=#b85450;fontStyle=1;align=left;fontSize=11;spacingTop=2;spacingLeft=2;" parent="1" vertex="1">
          <mxGeometry x="1090" y="300" width="200" height="110" as="geometry" />
        </mxCell>
        <mxCell id="m6_automation_prep" value="Подготовка к автоматизации&lt;br&gt;&lt;br&gt;• Анализ процессов бэк-офиса&lt;br&gt;• Планирование автоматизации&lt;br&gt;• Proof of concept&lt;br&gt;• Roadmap на год" style="rounded=1;whiteSpace=wrap;html=1;fillColor=#f8cecc;strokeColor=#b85450;fontStyle=1;align=left;fontSize=11;spacingTop=2;spacingLeft=2;" parent="1" vertex="1">
          <mxGeometry x="1090" y="420" width="200" height="110" as="geometry" />
        </mxCell>
        <mxCell id="milestone3" value="MILESTONE 3&lt;br&gt;Готовность к&lt;br&gt;полной автоматизации" style="rounded=1;whiteSpace=wrap;html=1;fillColor=#ffcccc;strokeColor=#ff6666;fontStyle=1;spacingTop=2;spacingLeft=2;align=left;" parent="1" vertex="1">
          <mxGeometry x="1060" y="580" width="150" height="80" as="geometry" />
        </mxCell>
        <mxCell id="target_vision" value="ЦЕЛЬ НА ГОД&lt;br&gt;&lt;br&gt;Полная автоматизация&lt;br&gt;депозитов без участия&lt;br&gt;бэк-офиса" style="rounded=1;whiteSpace=wrap;html=1;fillColor=#ccffcc;strokeColor=#66ff66;fontStyle=1;dashed=1;align=left;fontSize=11;spacingTop=2;spacingLeft=2;" parent="1" vertex="1">
          <mxGeometry x="1320" y="295" width="160" height="100" as="geometry" />
        </mxCell>
        <mxCell id="progress1" style="edgeStyle=orthogonalEdgeStyle;rounded=0;orthogonalLoop=1;jettySize=auto;html=1;entryX=0;entryY=0.5;entryDx=0;entryDy=0;strokeColor=#82b366;strokeWidth=4;spacingTop=2;spacingLeft=2;" parent="1" source="phase1_bg" target="phase2_bg" edge="1">
          <mxGeometry relative="1" as="geometry" />
        </mxCell>
        <mxCell id="progress2" style="edgeStyle=orthogonalEdgeStyle;rounded=0;orthogonalLoop=1;jettySize=auto;html=1;entryX=0;entryY=0.5;entryDx=0;entryDy=0;strokeColor=#6c8ebf;strokeWidth=4;spacingTop=2;spacingLeft=2;" parent="1" source="phase2_bg" target="phase3_bg" edge="1">
          <mxGeometry relative="1" as="geometry">
            <Array as="points">
              <mxPoint x="730" y="345" />
            </Array>
          </mxGeometry>
        </mxCell>
        <mxCell id="progress3" style="edgeStyle=orthogonalEdgeStyle;rounded=0;orthogonalLoop=1;jettySize=auto;html=1;entryX=0;entryY=0.5;entryDx=0;entryDy=0;strokeColor=#9673a6;strokeWidth=4;spacingTop=2;spacingLeft=2;" parent="1" source="phase3_bg" target="phase4_bg" edge="1">
          <mxGeometry relative="1" as="geometry" />
        </mxCell>
        <mxCell id="progress4" style="edgeStyle=orthogonalEdgeStyle;rounded=0;orthogonalLoop=1;jettySize=auto;html=1;entryX=0;entryY=0.5;entryDx=0;entryDy=0;strokeColor=#66ff66;strokeWidth=3;dashed=1;spacingTop=2;spacingLeft=2;" parent="1" source="phase4_bg" target="target_vision" edge="1">
          <mxGeometry relative="1" as="geometry">
            <mxPoint x="1321" y="311" as="targetPoint" />
          </mxGeometry>
        </mxCell>
        <mxCell id="risks_title" value="⚠️ ОСНОВНЫЕ РИСКИ И MITIGATION:" style="text;html=1;strokeColor=none;fillColor=none;align=left;verticalAlign=middle;whiteSpace=wrap;rounded=0;fontSize=16;fontStyle=1;spacingTop=2;spacingLeft=2;" parent="1" vertex="1">
          <mxGeometry x="30" y="660" width="350" height="30" as="geometry" />
        </mxCell>
        <mxCell id="risk1" value="🔴 ВЫСОКИЙ РИСК: Rates Management Service&#xa;Новый компонент, критический путь&#xa;Mitigation: Early prototyping, опытная команда" style="rounded=1;whiteSpace=wrap;html=1;fillColor=#ffcccc;strokeColor=#ff6666;spacingTop=2;spacingLeft=2;align=left;" parent="1" vertex="1">
          <mxGeometry x="30" y="700" width="300" height="60" as="geometry" />
        </mxCell>
        <mxCell id="risk2" value="🟡 СРЕДНИЙ РИСК: АБС интеграция&#xa;Ограниченные ресурсы команды АБС&#xa;Mitigation: Раннее планирование, fallback plan" style="rounded=1;whiteSpace=wrap;html=1;fillColor=#fff2cc;strokeColor=#d6b656;spacingTop=2;spacingLeft=2;align=left;" parent="1" vertex="1">
          <mxGeometry x="350" y="700" width="300" height="60" as="geometry" />
        </mxCell>
        <mxCell id="risk3" value="🟡 СРЕДНИЙ РИСК: Excel процесс&#xa;Человеческий фактор, ручные ошибки&#xa;Mitigation: Автоматизация валидации, двойная проверка" style="rounded=1;whiteSpace=wrap;html=1;fillColor=#fff2cc;strokeColor=#d6b656;spacingTop=2;spacingLeft=2;align=left;" parent="1" vertex="1">
          <mxGeometry x="670" y="700" width="330" height="60" as="geometry" />
        </mxCell>
        <mxCell id="risk4" value="🟢 НИЗКИЙ РИСК: Партнёрская интеграция&#xa;SFTP стандартный протокол&#xa;Mitigation: Раннее тестирование, простые форматы" style="rounded=1;whiteSpace=wrap;html=1;fillColor=#ccffcc;strokeColor=#66ff66;spacingTop=2;spacingLeft=2;align=left;" parent="1" vertex="1">
          <mxGeometry x="1020" y="700" width="300" height="60" as="geometry" />
        </mxCell>
        <mxCell id="resources_title" value="РЕСУРСЫ ПО ФАЗАМ:" style="text;html=1;strokeColor=none;fillColor=none;align=left;verticalAlign=middle;whiteSpace=wrap;rounded=0;fontSize=16;fontStyle=1;spacingTop=2;spacingLeft=2;" parent="1" vertex="1">
          <mxGeometry x="30" y="800" width="200" height="30" as="geometry" />
        </mxCell>
        <mxCell id="resources1" value="ФАЗА 1-2 (3 месяца)&#xa;• 3 Backend разработчика&#xa;• 1 Frontend разработчик&#xa;• 2 DevOps инженера&#xa;• 2 QA инженера&#xa;&#xa;Итого: 8 человек" style="rounded=1;whiteSpace=wrap;html=1;fillColor=#d5e8d4;strokeColor=#82b366;align=left;spacingTop=2;spacingLeft=2;" parent="1" vertex="1">
          <mxGeometry x="30" y="840" width="200" height="120" as="geometry" />
        </mxCell>
        <mxCell id="resources2" value="ФАЗА 3 (2 месяца)&#xa;• 2 Backend разработчика&#xa;• 2 АБС разработчика&#xa;• 1 Кол-центр разработчик&#xa;• 1 DevOps инженер&#xa;• 1 QA инженер&#xa;&#xa;Итого: 7 человек" style="rounded=1;whiteSpace=wrap;html=1;fillColor=#e1d5e7;strokeColor=#9673a6;align=left;spacingTop=2;spacingLeft=2;" parent="1" vertex="1">
          <mxGeometry x="250" y="840" width="200" height="120" as="geometry" />
        </mxCell>
        <mxCell id="resources3" value="ФАЗА 4 (1 месяц)&#xa;• 1 Backend разработчик&#xa;• 1 DevOps инженер&#xa;• 1 Аналитик&#xa;• 1 Архитектор&#xa;&#xa;&#xa;Итого: 4 человека" style="rounded=1;whiteSpace=wrap;html=1;fillColor=#f8cecc;strokeColor=#b85450;align=left;spacingTop=2;spacingLeft=2;" parent="1" vertex="1">
          <mxGeometry x="470" y="840" width="200" height="120" as="geometry" />
        </mxCell>
        <mxCell id="kpis_title" value="КЛЮЧЕВЫЕ МЕТРИКИ УСПЕХА:" style="text;html=1;strokeColor=none;fillColor=none;align=left;verticalAlign=middle;whiteSpace=wrap;rounded=0;fontSize=16;fontStyle=1;spacingTop=2;spacingLeft=2;" parent="1" vertex="1">
          <mxGeometry x="730" y="800" width="300" height="30" as="geometry" />
        </mxCell>
        <mxCell id="kpis" value="MVP (месяц 3):&lt;br&gt;• 100+ заявок на депозиты онлайн&lt;br&gt;• &amp;lt;1 сек время загрузки ставок&lt;br&gt;• 99.5% SLA доступности&lt;br&gt;&lt;br&gt;Кол-центр (месяц 5):&lt;br&gt;• 100% операторов видят актуальные ставки&lt;br&gt;• &amp;lt;30 мин время обновления ставок&lt;br&gt;• 0 инцидентов с рассинхронизацией&lt;br&gt;&lt;br&gt;Готовность к автоматизации (месяц 6):&lt;br&gt;• План автоматизации на год&lt;br&gt;• POC автоматического расчёта ставок&lt;br&gt;• 50% сокращение времени обработки заявок" style="rounded=1;whiteSpace=wrap;html=1;fillColor=#f0f0f0;strokeColor=#666666;align=left;arcSize=4;spacingTop=2;spacingLeft=2;" parent="1" vertex="1">
          <mxGeometry x="730" y="840" width="400" height="220" as="geometry" />
        </mxCell>
        <mxCell id="dependencies_title" value="КРИТИЧЕСКИЕ ЗАВИСИМОСТИ:" style="text;html=1;strokeColor=none;fillColor=none;align=left;verticalAlign=middle;whiteSpace=wrap;rounded=0;fontSize=16;fontStyle=1;spacingTop=2;spacingLeft=2;" parent="1" vertex="1">
          <mxGeometry x="1150" y="800" width="280" height="30" as="geometry" />
        </mxCell>
        <mxCell id="dependencies" value="Блокирующие зависимости:&lt;br&gt;&lt;br&gt;1. Rates Service → Все интеграции&lt;br&gt;2. API Gateway → Frontend интеграции&lt;br&gt;3. АБС Integration Layer → Синхронизация&lt;br&gt;4. Kafka setup → Async processing&lt;br&gt;5. SFTP server → Партнёрская интеграция&lt;br&gt;&lt;br&gt;Критический путь: 12 недель&lt;br&gt;(Rates Service + тестирование)" style="rounded=1;whiteSpace=wrap;html=1;fillColor=#fff2cc;strokeColor=#d6b656;align=left;spacingTop=2;spacingLeft=2;arcSize=6;" parent="1" vertex="1">
          <mxGeometry x="1150" y="840" width="280" height="220" as="geometry" />
        </mxCell>
      </root>
    </mxGraphModel>
  </diagram>
</mxfile>
